<svg width="32" height="32" viewBox="0 0 32 32" fill="none" xmlns="http://www.w3.org/2000/svg">
<path fill-rule="evenodd" clip-rule="evenodd" d="M10.1667 24.3333C8.78595 24.3333 7.66667 23.214 7.66667 21.8333V10.1667C7.66667 8.78595 8.78595 7.66667 10.1667 7.66667H21.8333C23.214 7.66667 24.3333 8.78595 24.3333 10.1667V21.8333C24.3333 23.214 23.214 24.3333 21.8333 24.3333H10.1667ZM9.33333 10.1667C9.33333 9.70643 9.70643 9.33333 10.1667 9.33333H12.6667V22.6667H10.1667C9.70643 22.6667 9.33333 22.2936 9.33333 21.8333V10.1667ZM14.3333 22.6667V9.33333H21.8333C22.2936 9.33333 22.6667 9.70643 22.6667 10.1667V21.8333C22.6667 22.2936 22.2936 22.6667 21.8333 22.6667H14.3333Z" fill="#2E3238"/>
</svg>
